<svg width="60" height="60" viewBox="0 0 60 60" fill="none" xmlns="http://www.w3.org/2000/svg">
<path d="M50.1355 27.7766V22.98H51.6789C52.9066 22.98 53.9054 21.9812 53.9054 20.7535V11.6014C53.9054 10.3736 52.9066 9.37485 51.6789 9.37485H44.3729C45.8874 7.88929 46.8294 5.82202 46.8294 3.53807C46.8294 2.89085 46.3047 2.36621 45.6575 2.36621C45.0103 2.36621 44.4857 2.89085 44.4857 3.53807C44.4857 5.72745 43.2734 7.63804 41.4854 8.6367C41.9325 7.8096 42.1868 6.86368 42.1868 5.85928C42.1868 2.62847 39.5584 0 36.3276 0C33.679 0 31.4365 1.76681 30.7138 4.18341C29.6953 3.32854 28.3834 2.81246 26.9527 2.81246C25.522 2.81246 24.2101 3.32854 23.1916 4.18341C22.4689 1.76681 20.2264 0 17.5779 0C14.347 0 11.7186 2.62847 11.7186 5.85928C11.7186 6.86368 11.9729 7.80972 12.42 8.6367C10.632 7.63804 9.41974 5.72733 9.41974 3.53795C9.41974 2.89074 8.8951 2.3661 8.24788 2.3661C7.60066 2.3661 7.07602 2.89074 7.07602 3.53795C7.07602 5.8219 8.01796 7.88917 9.53247 9.37474H2.22653C0.998773 9.37474 0 10.3735 0 11.6013V20.7533C0 21.9811 0.998773 22.9799 2.22653 22.9799H3.76986V51.7959C3.76986 53.7344 5.34695 55.3115 7.28543 55.3115H31.4655C34.4976 58.2135 38.6067 59.9989 43.1253 59.9989C52.43 59.9989 60 52.429 60 43.1242C60 36.3195 55.9506 30.4434 50.1355 27.7766ZM32.812 8.67174V5.85928C32.812 3.9208 34.3891 2.34371 36.3276 2.34371C38.266 2.34371 39.8431 3.9208 39.8431 5.85928C39.8431 7.79777 38.266 9.37485 36.3276 9.37485H32.812V8.67174ZM32.812 11.7186H51.5617V20.6363H32.812V11.7186ZM32.812 22.98H47.7918V26.9064C46.3092 26.4792 44.7436 26.2496 43.1253 26.2496C39.2444 26.2496 35.6659 27.5672 32.812 29.7776V22.98ZM23.4371 8.67174C23.4371 6.73325 25.0142 5.15617 26.9527 5.15617C28.8912 5.15617 30.4683 6.73325 30.4683 8.67174V9.37485H23.4371V8.67174ZM23.4371 11.7186H30.4683V20.6363H23.4371V11.7186ZM17.5779 2.34371C19.5163 2.34371 21.0934 3.9208 21.0934 5.85928V8.67174V9.37485H17.5779C15.6394 9.37485 14.0623 7.79777 14.0623 5.85928C14.0623 3.9208 15.6394 2.34371 17.5779 2.34371ZM2.34371 20.6363V11.7186H21.0934V20.6363H4.94172H2.34371ZM23.4371 52.9679V42.0092C23.4371 41.362 22.9125 40.8373 22.2653 40.8373C21.6181 40.8373 21.0934 41.362 21.0934 42.0092V52.9679H7.28543C6.63927 52.9679 6.11358 52.4422 6.11358 51.7961V22.98H21.0934V31.4625C21.0934 32.1097 21.6181 32.6343 22.2653 32.6343C22.9125 32.6343 23.4371 32.1097 23.4371 31.4625V22.98H30.4683V31.9769C27.8448 34.952 26.2505 38.8553 26.2505 43.1243C26.2505 46.7952 27.4294 50.1954 29.4274 52.9679H23.4371ZM43.1253 57.6553C35.1128 57.6553 28.5942 51.1368 28.5942 43.1243C28.5942 35.1119 35.1128 28.5933 43.1253 28.5933C51.1377 28.5933 57.6563 35.1119 57.6563 43.1243C57.6563 51.1368 51.1377 57.6553 43.1253 57.6553Z" fill="black"/>
</svg>
